<svg xmlns="http://www.w3.org/2000/svg" viewBox="0 0 32 32" fill="#ffffff">
  <path d="M16 0C7.163 0 0 7.163 0 16c0 2.837.74 5.503 2.033 7.833L0 32l8.333-2.033A15.93 15.93 0 0 0 16 32c8.837 0 16-7.163 16-16S24.837 0 16 0zm0 29.333a13.27 13.27 0 0 1-6.773-1.867l-.483-.283-4.943 1.207 1.207-4.943-.283-.483A13.27 13.27 0 0 1 2.667 16C2.667 8.68 8.68 2.667 16 2.667S29.333 8.68 29.333 16 23.32 29.333 16 29.333zm7.56-9.347c-.413-.207-2.44-1.2-2.813-1.333-.373-.133-.647-.207-.92.207-.273.413-1.06 1.333-1.3 1.607-.24.273-.48.307-.893.1-.413-.207-1.747-.643-3.327-2.053-1.23-1.097-2.06-2.453-2.3-2.867-.24-.413-.027-.637.18-.843.187-.187.413-.48.62-.72.207-.24.273-.413.413-.687.14-.273.067-.513-.033-.72-.1-.207-.92-2.22-1.26-3.04-.333-.8-.673-.687-.92-.7-.24-.013-.513-.013-.787-.013-.273 0-.72.1-1.093.513-.373.413-1.433 1.4-1.433 3.413s1.467 3.96 1.673 4.233c.207.273 2.887 4.407 7 6.18.98.42 1.747.673 2.347.86.987.313 1.887.27 2.6.163.793-.12 2.44-.997 2.787-1.96.347-.96.347-1.787.24-1.96-.107-.173-.38-.273-.793-.48z"></path>
</svg>
